<mxfile host="app.diagrams.net" modified="2024-11-28T22:19:35.720Z" agent="Mozilla/5.0 (Windows NT 10.0; Win64; x64) AppleWebKit/537.36 (KHTML, like Gecko) Chrome/131.0.0.0 Safari/537.36" version="21.1.4" etag="GcDZ2UGPLd1l4y9mdK5O" type="github">
  <diagram name="Page-1" id="N3qDSgcZwrjLuofzTqwa">
    <mxGraphModel>
      <root>
        <mxCell id="0" />
        <mxCell id="1" parent="0" />
      </root>
    </mxGraphModel>
  </diagram>
</mxfile>
